solid OpenSCAD_Model
  facet normal 1 -0 0
    outer loop
      vertex 30 0 2
      vertex 30 2 0
      vertex 30 2 2
    endloop
  endfacet
  facet normal 1 0 0
    outer loop
      vertex 30 2 0
      vertex 30 0 2
      vertex 30 0 0
    endloop
  endfacet
  facet normal 0 -1 0
    outer loop
      vertex 54 2 2
      vertex 46 2 4
      vertex 46 2 2
    endloop
  endfacet
  facet normal 0 -1 0
    outer loop
      vertex 46 2 4
      vertex 54 2 2
      vertex 70 2 4
    endloop
  endfacet
  facet normal 0 -1 -0
    outer loop
      vertex 70 2 4
      vertex 54 2 2
      vertex 70 2 2
    endloop
  endfacet
  facet normal 0 -1 0
    outer loop
      vertex 30 2 0
      vertex 46 2 2
      vertex 30 2 2
    endloop
  endfacet
  facet normal 0 -1 0
    outer loop
      vertex 54 2 0
      vertex 46 2 2
      vertex 30 2 0
    endloop
  endfacet
  facet normal 0 -1 0
    outer loop
      vertex 46 2 2
      vertex 54 2 0
      vertex 54 2 2
    endloop
  endfacet
  facet normal -0 0 1
    outer loop
      vertex 0 6 4
      vertex 46 4 4
      vertex 46 6 4
    endloop
  endfacet
  facet normal 0 0 1
    outer loop
      vertex 46 4 4
      vertex 0 6 4
      vertex 46 2 4
    endloop
  endfacet
  facet normal 0 0 1
    outer loop
      vertex 0 0 4
      vertex 46 2 4
      vertex 0 6 4
    endloop
  endfacet
  facet normal 0 0 1
    outer loop
      vertex 46 2 4
      vertex 0 0 4
      vertex 46 0 4
    endloop
  endfacet
  facet normal -0 0 1
    outer loop
      vertex 46 4 4
      vertex 70 2 4
      vertex 70 4 4
    endloop
  endfacet
  facet normal 0 0 1
    outer loop
      vertex 70 2 4
      vertex 46 4 4
      vertex 46 2 4
    endloop
  endfacet
  facet normal 1 -0 0
    outer loop
      vertex 46 0 4
      vertex 46 2 2
      vertex 46 2 4
    endloop
  endfacet
  facet normal 1 0 0
    outer loop
      vertex 46 2 2
      vertex 46 0 4
      vertex 46 0 2
    endloop
  endfacet
  facet normal 0 0 -1
    outer loop
      vertex 30 0 2
      vertex 46 2 2
      vertex 46 0 2
    endloop
  endfacet
  facet normal -0 0 -1
    outer loop
      vertex 46 2 2
      vertex 30 0 2
      vertex 30 2 2
    endloop
  endfacet
  facet normal -1 0 0
    outer loop
      vertex 54 0 0
      vertex 54 2 2
      vertex 54 2 0
    endloop
  endfacet
  facet normal -1 -0 0
    outer loop
      vertex 54 2 2
      vertex 54 0 0
      vertex 54 0 2
    endloop
  endfacet
  facet normal -0 0 1
    outer loop
      vertex 54 2 2
      vertex 70 0 2
      vertex 70 2 2
    endloop
  endfacet
  facet normal 0 0 1
    outer loop
      vertex 70 0 2
      vertex 54 2 2
      vertex 54 0 2
    endloop
  endfacet
  facet normal 1 0 0
    outer loop
      vertex 70 4 4
      vertex 70 2 4
      vertex 70 4 2
    endloop
  endfacet
  facet normal 1 -0 0
    outer loop
      vertex 70 4 2
      vertex 70 6 0
      vertex 70 6 2
    endloop
  endfacet
  facet normal 1 0 0
    outer loop
      vertex 70 2 2
      vertex 70 4 2
      vertex 70 2 4
    endloop
  endfacet
  facet normal 1 0 0
    outer loop
      vertex 70 4 2
      vertex 70 2 2
      vertex 70 6 0
    endloop
  endfacet
  facet normal 1 0 0
    outer loop
      vertex 70 0 0
      vertex 70 2 2
      vertex 70 0 2
    endloop
  endfacet
  facet normal 1 0 0
    outer loop
      vertex 70 2 2
      vertex 70 0 0
      vertex 70 6 0
    endloop
  endfacet
  facet normal 0 0 -1
    outer loop
      vertex 0 0 0
      vertex 30 2 0
      vertex 30 0 0
    endloop
  endfacet
  facet normal -0 0 -1
    outer loop
      vertex 30 2 0
      vertex 0 0 0
      vertex 30 4 0
    endloop
  endfacet
  facet normal 0 0 -1
    outer loop
      vertex 0 6 0
      vertex 30 4 0
      vertex 0 0 0
    endloop
  endfacet
  facet normal 0 0 -1
    outer loop
      vertex 30 4 0
      vertex 0 6 0
      vertex 30 6 0
    endloop
  endfacet
  facet normal 0 0 -1
    outer loop
      vertex 30 2 0
      vertex 54 4 0
      vertex 54 2 0
    endloop
  endfacet
  facet normal -0 0 -1
    outer loop
      vertex 54 4 0
      vertex 30 2 0
      vertex 30 4 0
    endloop
  endfacet
  facet normal 0 0 -1
    outer loop
      vertex 54 2 0
      vertex 70 0 0
      vertex 54 0 0
    endloop
  endfacet
  facet normal 0 0 -1
    outer loop
      vertex 70 0 0
      vertex 54 2 0
      vertex 70 6 0
    endloop
  endfacet
  facet normal 0 0 -1
    outer loop
      vertex 54 4 0
      vertex 70 6 0
      vertex 54 2 0
    endloop
  endfacet
  facet normal -0 0 -1
    outer loop
      vertex 70 6 0
      vertex 54 4 0
      vertex 54 6 0
    endloop
  endfacet
  facet normal 1 -0 0
    outer loop
      vertex 30 4 2
      vertex 30 6 0
      vertex 30 6 2
    endloop
  endfacet
  facet normal 1 0 0
    outer loop
      vertex 30 6 0
      vertex 30 4 2
      vertex 30 4 0
    endloop
  endfacet
  facet normal 0 1 0
    outer loop
      vertex 54 4 2
      vertex 70 4 4
      vertex 70 4 2
    endloop
  endfacet
  facet normal 0 1 0
    outer loop
      vertex 70 4 4
      vertex 54 4 2
      vertex 46 4 4
    endloop
  endfacet
  facet normal 0 1 0
    outer loop
      vertex 54 4 2
      vertex 46 4 2
      vertex 46 4 4
    endloop
  endfacet
  facet normal 0 1 -0
    outer loop
      vertex 54 4 0
      vertex 46 4 2
      vertex 54 4 2
    endloop
  endfacet
  facet normal 0 1 0
    outer loop
      vertex 30 4 0
      vertex 46 4 2
      vertex 54 4 0
    endloop
  endfacet
  facet normal 0 1 0
    outer loop
      vertex 46 4 2
      vertex 30 4 0
      vertex 30 4 2
    endloop
  endfacet
  facet normal 1 -0 0
    outer loop
      vertex 46 4 4
      vertex 46 6 2
      vertex 46 6 4
    endloop
  endfacet
  facet normal 1 0 0
    outer loop
      vertex 46 6 2
      vertex 46 4 4
      vertex 46 4 2
    endloop
  endfacet
  facet normal 0 0 -1
    outer loop
      vertex 30 4 2
      vertex 46 6 2
      vertex 46 4 2
    endloop
  endfacet
  facet normal -0 0 -1
    outer loop
      vertex 46 6 2
      vertex 30 4 2
      vertex 30 6 2
    endloop
  endfacet
  facet normal -1 0 0
    outer loop
      vertex 54 4 0
      vertex 54 6 2
      vertex 54 6 0
    endloop
  endfacet
  facet normal -1 -0 0
    outer loop
      vertex 54 6 2
      vertex 54 4 0
      vertex 54 4 2
    endloop
  endfacet
  facet normal -0 0 1
    outer loop
      vertex 54 6 2
      vertex 70 4 2
      vertex 70 6 2
    endloop
  endfacet
  facet normal 0 0 1
    outer loop
      vertex 70 4 2
      vertex 54 6 2
      vertex 54 4 2
    endloop
  endfacet
  facet normal -1 0 0
    outer loop
      vertex 0 0 0
      vertex 0 6 4
      vertex 0 6 0
    endloop
  endfacet
  facet normal -1 -0 0
    outer loop
      vertex 0 6 4
      vertex 0 0 0
      vertex 0 0 4
    endloop
  endfacet
  facet normal 0 -1 0
    outer loop
      vertex 0 0 4
      vertex 30 0 2
      vertex 46 0 4
    endloop
  endfacet
  facet normal 0 -1 0
    outer loop
      vertex 0 0 0
      vertex 30 0 2
      vertex 0 0 4
    endloop
  endfacet
  facet normal 0 -1 -0
    outer loop
      vertex 30 0 2
      vertex 0 0 0
      vertex 30 0 0
    endloop
  endfacet
  facet normal 0 -1 -0
    outer loop
      vertex 46 0 4
      vertex 30 0 2
      vertex 46 0 2
    endloop
  endfacet
  facet normal 0 -1 0
    outer loop
      vertex 54 0 0
      vertex 70 0 2
      vertex 54 0 2
    endloop
  endfacet
  facet normal 0 -1 -0
    outer loop
      vertex 70 0 2
      vertex 54 0 0
      vertex 70 0 0
    endloop
  endfacet
  facet normal 0 1 0
    outer loop
      vertex 30 6 2
      vertex 46 6 4
      vertex 46 6 2
    endloop
  endfacet
  facet normal 0 1 0
    outer loop
      vertex 46 6 4
      vertex 30 6 2
      vertex 0 6 4
    endloop
  endfacet
  facet normal 0 1 0
    outer loop
      vertex 0 6 0
      vertex 30 6 2
      vertex 30 6 0
    endloop
  endfacet
  facet normal 0 1 0
    outer loop
      vertex 30 6 2
      vertex 0 6 0
      vertex 0 6 4
    endloop
  endfacet
  facet normal 0 1 -0
    outer loop
      vertex 70 6 0
      vertex 54 6 2
      vertex 70 6 2
    endloop
  endfacet
  facet normal 0 1 0
    outer loop
      vertex 54 6 2
      vertex 70 6 0
      vertex 54 6 0
    endloop
  endfacet
  facet normal -0.5 0 -0.866026
    outer loop
      vertex 53.9346 4 10.9808
      vertex 55.6667 6 9.98076
      vertex 55.6667 4 9.98076
    endloop
  endfacet
  facet normal -0.5 0 -0.866026
    outer loop
      vertex 55.6667 6 9.98076
      vertex 53.9346 4 10.9808
      vertex 53.9346 6 10.9808
    endloop
  endfacet
  facet normal -0.5 0 -0.866026
    outer loop
      vertex 53.9346 0 10.9808
      vertex 55.6667 2 9.98076
      vertex 55.6667 0 9.98076
    endloop
  endfacet
  facet normal -0.5 0 -0.866026
    outer loop
      vertex 55.6667 2 9.98076
      vertex 53.9346 0 10.9808
      vertex 53.9346 2 10.9808
    endloop
  endfacet
  facet normal 0 1 0
    outer loop
      vertex 65.9346 2 31.7654
      vertex 72.2026 2 46.6218
      vertex 73.9346 2 45.6218
    endloop
  endfacet
  facet normal 0 1 -0
    outer loop
      vertex 65.9346 2 31.7654
      vertex 60.2026 2 25.8372
      vertex 72.2026 2 46.6218
    endloop
  endfacet
  facet normal 0 1 0
    outer loop
      vertex 61.9346 2 24.8372
      vertex 65.9346 2 31.7654
      vertex 67.6667 2 30.7654
    endloop
  endfacet
  facet normal 0 1 0
    outer loop
      vertex 65.9346 2 31.7654
      vertex 61.9346 2 24.8372
      vertex 60.2026 2 25.8372
    endloop
  endfacet
  facet normal 0 1 0
    outer loop
      vertex 55.6667 2 9.98076
      vertex 61.9346 2 24.8372
      vertex 67.6667 2 30.7654
    endloop
  endfacet
  facet normal 0 1 0
    outer loop
      vertex 61.9346 2 24.8372
      vertex 55.6667 2 9.98076
      vertex 53.9346 2 10.9808
    endloop
  endfacet
  facet normal -0.866025 0 0.5
    outer loop
      vertex 60.2026 2 25.8372
      vertex 60.2026 0 25.8372
      vertex 72.2026 2 46.6218
    endloop
  endfacet
  facet normal -0.866025 0 0.5
    outer loop
      vertex 72.2026 4 46.6218
      vertex 60.2026 6 25.8372
      vertex 60.2026 4 25.8372
    endloop
  endfacet
  facet normal -0.866025 -1.07662e-06 0.5
    outer loop
      vertex 60.2026 6 25.8372
      vertex 72.2026 4 46.6218
      vertex 87.2026 6 72.6025
    endloop
  endfacet
  facet normal -0.866025 0 0.5
    outer loop
      vertex 72.2026 2 46.6218
      vertex 87.2026 6 72.6025
      vertex 72.2026 4 46.6218
    endloop
  endfacet
  facet normal -0.866025 0 0.5
    outer loop
      vertex 72.2026 2 46.6218
      vertex 87.2026 0 72.6025
      vertex 87.2026 6 72.6025
    endloop
  endfacet
  facet normal -0.866025 1.07662e-06 0.5
    outer loop
      vertex 87.2026 0 72.6025
      vertex 72.2026 2 46.6218
      vertex 60.2026 0 25.8372
    endloop
  endfacet
  facet normal -0.5 0 -0.866026
    outer loop
      vertex 60.2026 0 25.8372
      vertex 61.9346 2 24.8372
      vertex 61.9346 0 24.8372
    endloop
  endfacet
  facet normal -0.5 0 -0.866026
    outer loop
      vertex 61.9346 2 24.8372
      vertex 60.2026 0 25.8372
      vertex 60.2026 2 25.8372
    endloop
  endfacet
  facet normal -0.866025 0 0.5
    outer loop
      vertex 53.9346 0 10.9808
      vertex 61.9346 2 24.8372
      vertex 53.9346 2 10.9808
    endloop
  endfacet
  facet normal -0.866025 0 0.5
    outer loop
      vertex 61.9346 2 24.8372
      vertex 53.9346 0 10.9808
      vertex 61.9346 0 24.8372
    endloop
  endfacet
  facet normal 0.500001 0 0.866025
    outer loop
      vertex 65.9346 2 31.7654
      vertex 67.6667 0 30.7654
      vertex 67.6667 2 30.7654
    endloop
  endfacet
  facet normal 0.500001 0 0.866025
    outer loop
      vertex 67.6667 0 30.7654
      vertex 65.9346 2 31.7654
      vertex 65.9346 0 31.7654
    endloop
  endfacet
  facet normal 0.866025 0 -0.5
    outer loop
      vertex 73.9346 0 45.6218
      vertex 65.9346 2 31.7654
      vertex 73.9346 2 45.6218
    endloop
  endfacet
  facet normal 0.866025 0 -0.5
    outer loop
      vertex 65.9346 2 31.7654
      vertex 73.9346 0 45.6218
      vertex 65.9346 0 31.7654
    endloop
  endfacet
  facet normal -0.500001 0 -0.866025
    outer loop
      vertex 72.2026 2 46.6218
      vertex 73.9346 4 45.6218
      vertex 73.9346 2 45.6218
    endloop
  endfacet
  facet normal -0.500001 0 -0.866025
    outer loop
      vertex 73.9346 4 45.6218
      vertex 72.2026 2 46.6218
      vertex 72.2026 4 46.6218
    endloop
  endfacet
  facet normal -0.500001 -0 -0.866025
    outer loop
      vertex 73.9346 2 45.6218
      vertex 75.6667 0 44.6218
      vertex 73.9346 0 45.6218
    endloop
  endfacet
  facet normal -0.500001 0 -0.866025
    outer loop
      vertex 75.6667 0 44.6218
      vertex 73.9346 2 45.6218
      vertex 75.6667 6 44.6218
    endloop
  endfacet
  facet normal -0.500001 -0 -0.866025
    outer loop
      vertex 73.9346 4 45.6218
      vertex 75.6667 6 44.6218
      vertex 73.9346 2 45.6218
    endloop
  endfacet
  facet normal -0.500001 0 -0.866025
    outer loop
      vertex 75.6667 6 44.6218
      vertex 73.9346 4 45.6218
      vertex 73.9346 6 45.6218
    endloop
  endfacet
  facet normal 0.866025 0 -0.5
    outer loop
      vertex 67.6667 4 30.7654
      vertex 55.6667 6 9.98076
      vertex 67.6667 6 30.7654
    endloop
  endfacet
  facet normal 0.866025 0 -0.5
    outer loop
      vertex 55.6667 6 9.98076
      vertex 67.6667 4 30.7654
      vertex 55.6667 4 9.98076
    endloop
  endfacet
  facet normal 0.866025 0 -0.5
    outer loop
      vertex 67.6667 0 30.7654
      vertex 55.6667 2 9.98076
      vertex 67.6667 2 30.7654
    endloop
  endfacet
  facet normal 0.866025 0 -0.5
    outer loop
      vertex 55.6667 2 9.98076
      vertex 67.6667 0 30.7654
      vertex 55.6667 0 9.98076
    endloop
  endfacet
  facet normal 0.866025 0 -0.5
    outer loop
      vertex 90.6667 0 70.6025
      vertex 75.6667 6 44.6218
      vertex 90.6667 6 70.6025
    endloop
  endfacet
  facet normal 0.866025 0 -0.5
    outer loop
      vertex 75.6667 6 44.6218
      vertex 90.6667 0 70.6025
      vertex 75.6667 0 44.6218
    endloop
  endfacet
  facet normal 0 -1 -0
    outer loop
      vertex 72.2026 4 46.6218
      vertex 65.9346 4 31.7654
      vertex 73.9346 4 45.6218
    endloop
  endfacet
  facet normal 0 -1 0
    outer loop
      vertex 60.2026 4 25.8372
      vertex 65.9346 4 31.7654
      vertex 72.2026 4 46.6218
    endloop
  endfacet
  facet normal 0 -1 0
    outer loop
      vertex 61.9346 4 24.8372
      vertex 65.9346 4 31.7654
      vertex 60.2026 4 25.8372
    endloop
  endfacet
  facet normal 0 -1 -0
    outer loop
      vertex 65.9346 4 31.7654
      vertex 61.9346 4 24.8372
      vertex 67.6667 4 30.7654
    endloop
  endfacet
  facet normal 0 -1 0
    outer loop
      vertex 55.6667 4 9.98076
      vertex 61.9346 4 24.8372
      vertex 53.9346 4 10.9808
    endloop
  endfacet
  facet normal 0 -1 -0
    outer loop
      vertex 61.9346 4 24.8372
      vertex 55.6667 4 9.98076
      vertex 67.6667 4 30.7654
    endloop
  endfacet
  facet normal -0.5 0 -0.866026
    outer loop
      vertex 60.2026 4 25.8372
      vertex 61.9346 6 24.8372
      vertex 61.9346 4 24.8372
    endloop
  endfacet
  facet normal -0.5 0 -0.866026
    outer loop
      vertex 61.9346 6 24.8372
      vertex 60.2026 4 25.8372
      vertex 60.2026 6 25.8372
    endloop
  endfacet
  facet normal -0.866025 0 0.5
    outer loop
      vertex 53.9346 4 10.9808
      vertex 61.9346 6 24.8372
      vertex 53.9346 6 10.9808
    endloop
  endfacet
  facet normal -0.866025 0 0.5
    outer loop
      vertex 61.9346 6 24.8372
      vertex 53.9346 4 10.9808
      vertex 61.9346 4 24.8372
    endloop
  endfacet
  facet normal 0.500001 0 0.866025
    outer loop
      vertex 65.9346 6 31.7654
      vertex 67.6667 4 30.7654
      vertex 67.6667 6 30.7654
    endloop
  endfacet
  facet normal 0.500001 0 0.866025
    outer loop
      vertex 67.6667 4 30.7654
      vertex 65.9346 6 31.7654
      vertex 65.9346 4 31.7654
    endloop
  endfacet
  facet normal 0.866025 0 -0.5
    outer loop
      vertex 73.9346 4 45.6218
      vertex 65.9346 6 31.7654
      vertex 73.9346 6 45.6218
    endloop
  endfacet
  facet normal 0.866025 0 -0.5
    outer loop
      vertex 65.9346 6 31.7654
      vertex 73.9346 4 45.6218
      vertex 65.9346 4 31.7654
    endloop
  endfacet
  facet normal 0 -1 -0
    outer loop
      vertex 87.2026 0 72.6025
      vertex 73.9346 0 45.6218
      vertex 90.6667 0 70.6025
    endloop
  endfacet
  facet normal 0 -1 0
    outer loop
      vertex 60.2026 0 25.8372
      vertex 73.9346 0 45.6218
      vertex 87.2026 0 72.6025
    endloop
  endfacet
  facet normal 0 -1 0
    outer loop
      vertex 73.9346 0 45.6218
      vertex 60.2026 0 25.8372
      vertex 65.9346 0 31.7654
    endloop
  endfacet
  facet normal 0 -1 0
    outer loop
      vertex 61.9346 0 24.8372
      vertex 65.9346 0 31.7654
      vertex 60.2026 0 25.8372
    endloop
  endfacet
  facet normal 0 -1 -0
    outer loop
      vertex 65.9346 0 31.7654
      vertex 61.9346 0 24.8372
      vertex 67.6667 0 30.7654
    endloop
  endfacet
  facet normal 0 -1 0
    outer loop
      vertex 55.6667 0 9.98076
      vertex 61.9346 0 24.8372
      vertex 53.9346 0 10.9808
    endloop
  endfacet
  facet normal 0 -1 -0
    outer loop
      vertex 61.9346 0 24.8372
      vertex 55.6667 0 9.98076
      vertex 67.6667 0 30.7654
    endloop
  endfacet
  facet normal 0 -1 0
    outer loop
      vertex 90.6667 0 70.6025
      vertex 73.9346 0 45.6218
      vertex 75.6667 0 44.6218
    endloop
  endfacet
  facet normal 0 1 0
    outer loop
      vertex 90.6667 6 70.6025
      vertex 75.6667 6 44.6218
      vertex 73.9346 6 45.6218
    endloop
  endfacet
  facet normal 0 1 0
    outer loop
      vertex 73.9346 6 45.6218
      vertex 87.2026 6 72.6025
      vertex 90.6667 6 70.6025
    endloop
  endfacet
  facet normal 0 1 0
    outer loop
      vertex 60.2026 6 25.8372
      vertex 73.9346 6 45.6218
      vertex 65.9346 6 31.7654
    endloop
  endfacet
  facet normal 0 1 -0
    outer loop
      vertex 73.9346 6 45.6218
      vertex 60.2026 6 25.8372
      vertex 87.2026 6 72.6025
    endloop
  endfacet
  facet normal 0 1 0
    outer loop
      vertex 61.9346 6 24.8372
      vertex 65.9346 6 31.7654
      vertex 67.6667 6 30.7654
    endloop
  endfacet
  facet normal 0 1 0
    outer loop
      vertex 65.9346 6 31.7654
      vertex 61.9346 6 24.8372
      vertex 60.2026 6 25.8372
    endloop
  endfacet
  facet normal 0 1 0
    outer loop
      vertex 55.6667 6 9.98076
      vertex 61.9346 6 24.8372
      vertex 67.6667 6 30.7654
    endloop
  endfacet
  facet normal 0 1 0
    outer loop
      vertex 61.9346 6 24.8372
      vertex 55.6667 6 9.98076
      vertex 53.9346 6 10.9808
    endloop
  endfacet
  facet normal 0.500001 0 0.866025
    outer loop
      vertex 87.2026 6 72.6025
      vertex 90.6667 0 70.6025
      vertex 90.6667 6 70.6025
    endloop
  endfacet
  facet normal 0.500001 0 0.866025
    outer loop
      vertex 90.6667 0 70.6025
      vertex 87.2026 6 72.6025
      vertex 87.2026 0 72.6025
    endloop
  endfacet
endsolid OpenSCAD_Model
